<?xml version="1.0" standalone="no"?><!DOCTYPE svg PUBLIC "-//W3C//DTD SVG 1.1//EN" "http://www.w3.org/Graphics/SVG/1.1/DTD/svg11.dtd"><svg t="1535836255181" class="icon" style="" viewBox="0 0 1024 1024" version="1.1" xmlns="http://www.w3.org/2000/svg" p-id="1209" xmlns:xlink="http://www.w3.org/1999/xlink" width="32" height="32"><defs><style type="text/css"></style></defs><path d="M1024 488V315.68a41 41 0 0 0-41-41H763.41v-99.55a80.84 80.84 0 0 0-80.75-80.75H341.34a80.84 80.84 0 0 0-80.75 80.75v99.56H41a41 41 0 0 0-41 41V488h345.92v61H0v300.31a41 41 0 0 0 41 41h942a41 41 0 0 0 41-41V549H678.08v-61zM336.75 274.69v-99.56a4.59 4.59 0 0 1 4.59-4.58h341.32a4.59 4.59 0 0 1 4.59 4.58v99.56zM640 559.14a42.67 42.67 0 0 1-42.67 42.67H426.67A42.67 42.67 0 0 1 384 559.14V473.8a42.67 42.67 0 0 1 42.67-42.67h170.66A42.67 42.67 0 0 1 640 473.8z" p-id="1210" fill="#BFCCD6"></path></svg>